<svg width="500" height="500" viewBox="0 0 500 500" fill="none" xmlns="http://www.w3.org/2000/svg">
  <rect width="500" height="500" fill="#F3F4F6"/>
  <path d="M250 150C194.772 150 150 194.772 150 250C150 305.228 194.772 350 250 350C305.228 350 350 305.228 350 250C350 194.772 305.228 150 250 150ZM250 170C294.183 170 330 205.817 330 250C330 294.183 294.183 330 250 330C205.817 330 170 294.183 170 250C170 205.817 205.817 170 250 170Z" fill="#9CA3AF"/>
  <path d="M220 230C220 219.507 228.507 211 239 211C249.493 211 258 219.507 258 230C258 240.493 249.493 249 239 249C228.507 249 220 240.493 220 230Z" fill="#9CA3AF"/>
  <path d="M170 290L200 260L230 290L280 240L330 290" stroke="#9CA3AF" stroke-width="4" stroke-linecap="round" stroke-linejoin="round"/>
</svg>
